<svg xmlns="http://www.w3.org/2000/svg" xmlns:xlink="http://www.w3.org/1999/xlink" width="1080" zoomAndPan="magnify" viewBox="0 0 810 809.999993" height="1080" preserveAspectRatio="xMidYMid meet" version="1.0"><defs><clipPath id="103e65cef6"><path d="M 60 44 L 747 44 L 747 767.671875 L 60 767.671875 Z M 60 44 " clip-rule="nonzero"/></clipPath></defs><g clip-path="url(#103e65cef6)"><path fill="#ffffff" d="M 403.578125 44.570312 L 746.210938 213.871094 L 746.210938 598.875 L 403.578125 768.175781 L 60.945312 598.875 L 60.945312 213.871094 Z M 123.242188 283.359375 L 123.242188 560.167969 L 372.429688 683.296875 L 372.429688 406.484375 Z M 434.726562 406.484375 L 434.726562 683.296875 L 683.914062 560.167969 L 683.914062 283.359375 L 590.46875 329.53125 L 590.46875 453.097656 L 528.171875 484.246094 L 528.171875 360.316406 Z M 644.75 233.226562 L 563.585938 273.328125 C 561.808594 271.859375 559.835938 270.570312 557.683594 269.496094 L 324.730469 153.019531 L 403.578125 114.058594 Z M 254.667969 187.636719 L 494.410156 307.507812 L 403.578125 352.390625 L 162.40625 233.226562 Z M 254.667969 187.636719 " fill-opacity="1" fill-rule="evenodd"/></g></svg>