<svg xmlns="http://www.w3.org/2000/svg" xmlns:xlink="http://www.w3.org/1999/xlink" width="1080" zoomAndPan="magnify" viewBox="0 0 810 809.999993" height="1080" preserveAspectRatio="xMidYMid meet" version="1.0"><path stroke-linecap="round" transform="matrix(35.781246, 0, 0, 35.781246, -29.846963, -22.818894)" fill="none" stroke-linejoin="round" d="M 11.999982 20.999963 C 15.499983 17.399962 18.999983 14.176381 18.999983 10.199962 C 18.999983 6.223542 15.866031 2.999961 11.999982 2.999961 C 8.134043 2.999961 4.999981 6.223542 4.999981 10.199962 C 4.999981 14.176381 8.499982 17.399962 11.999982 20.999963 Z M 11.999982 20.999963 " stroke="#ffffff" stroke-width="2" stroke-opacity="1" stroke-miterlimit="4"/><path stroke-linecap="round" transform="matrix(35.781246, 0, 0, 35.781246, -29.846963, -22.818894)" fill="none" stroke-linejoin="round" d="M 11.999982 12.999962 C 13.65686 12.999962 14.999982 11.656949 14.999982 9.999962 C 14.999982 8.343193 13.65686 6.999961 11.999982 6.999961 C 10.343104 6.999961 8.999982 8.343193 8.999982 9.999962 C 8.999982 11.656949 10.343104 12.999962 11.999982 12.999962 Z M 11.999982 12.999962 " stroke="#ffffff" stroke-width="2" stroke-opacity="1" stroke-miterlimit="4"/></svg>